# xmcd CD database file
#
# Track frame offsets:
#	150
#	18532
#	36175
#	56330
#	76972
#	100605
#	122785
#	150305
#	160212
#	168660
#	186517
#	208290
#	241955
#
# Disc length: 3590 seconds
#
# Revision: 3
# Processed by: cddbd v1.5.1PL2 Copyright (c) Steve Scherf et al.
# Submitted via: CDex 1.51
#
DISCID=a70e040d
DTITLE=Olivier Louvel - En Attendant Julia
DYEAR=2002
DGENRE=Jazz
TTITLE0=F Comme F
TTITLE1=La Discordance de May
TTITLE2=Soon
TTITLE3=La Brune Aux Trois Mollets
TTITLE4=Mal De Lune
TTITLE5=Karmann Ghia
TTITLE6=Le Lac Orange Aux Chiens Qui Fument
TTITLE7=Solo Capo
TTITLE8=The Journey
TTITLE9=Sauvages Festins
TTITLE10=Time
TTITLE11=D'où Vais-Je ?
TTITLE12=DATA
EXTD=YEAR: 2002
EXTT0=
EXTT1=
EXTT2=
EXTT3=
EXTT4=
EXTT5=
EXTT6=
EXTT7=
EXTT8=
EXTT9=
EXTT10=
EXTT11=
EXTT12=
PLAYORDER=
